<svg width="85.104156" height="85.104156" viewBox="0 0 85.1042 85.1042" fill="none" xmlns="http://www.w3.org/2000/svg" xmlns:xlink="http://www.w3.org/1999/xlink">
	<desc>
			Created with Pixso.
	</desc>
	<defs/>
	<path id="Icon" d="M42.5521 0C44.1917 0 45.5208 1.32915 45.5208 2.96875L45.5208 6.92709C45.5208 8.56668 44.1917 9.89584 42.5521 9.89584C40.9125 9.89584 39.5833 8.56668 39.5833 6.92709L39.5833 2.96875C39.5833 1.32915 40.9125 0 42.5521 0ZM73.5104 14.5625C73.5104 15.3223 73.2206 16.082 72.6409 16.6617L69.8419 19.4607C68.6825 20.62 66.8028 20.62 65.6434 19.4607C65.0638 18.881 64.7739 18.1212 64.7739 17.3615C64.7739 16.6017 65.0638 15.8419 65.6434 15.2622L68.4424 12.4633C69.6018 11.3039 71.4815 11.3039 72.6409 12.4633C73.2206 13.043 73.5104 13.8027 73.5104 14.5625ZM12.4633 12.4633C13.6226 11.3039 15.5023 11.3039 16.6617 12.4633L19.4607 15.2623C20.0404 15.8419 20.3302 16.6017 20.3302 17.3615C20.3302 18.1213 20.0404 18.881 19.4607 19.4607C18.3013 20.6201 16.4216 20.6201 15.2622 19.4607L12.4633 16.6618C11.8836 16.0821 11.5938 15.3223 11.5938 14.5625C11.5938 13.8028 11.8836 13.043 12.4633 12.4633ZM19.7917 42.5521C19.7917 29.9818 29.9819 19.7917 42.5521 19.7917C55.1223 19.7917 65.3125 29.9818 65.3125 42.5521C65.3125 55.1223 55.1223 65.3125 42.5521 65.3125C29.9819 65.3125 19.7917 55.1223 19.7917 42.5521ZM42.5521 25.7292C33.261 25.7292 25.7292 33.261 25.7292 42.5521C25.7292 51.8431 33.261 59.375 42.5521 59.375C51.8431 59.375 59.375 51.8431 59.375 42.5521C59.375 33.261 51.8431 25.7292 42.5521 25.7292ZM9.89583 42.5521C9.89583 44.1917 8.56668 45.5208 6.92708 45.5208L2.96875 45.5208C1.32915 45.5208 0 44.1917 0 42.5521C0 40.9125 1.32915 39.5833 2.96875 39.5833L6.92708 39.5833C8.56668 39.5833 9.89583 40.9125 9.89583 42.5521ZM85.1042 42.5521C85.1042 44.1917 83.775 45.5208 82.1354 45.5208L78.1771 45.5208C76.5375 45.5208 75.2083 44.1917 75.2083 42.5521C75.2083 40.9125 76.5375 39.5833 78.1771 39.5833L82.1354 39.5833C83.775 39.5833 85.1042 40.9125 85.1042 42.5521ZM20.3299 67.7427C20.3299 68.5025 20.0401 69.2622 19.4604 69.8419L16.6615 72.6409C15.5021 73.8002 13.6224 73.8002 12.463 72.6409C11.8833 72.0612 11.5935 71.3014 11.5935 70.5417C11.5935 69.7819 11.8833 69.0221 12.463 68.4424L15.262 65.6435C16.4213 64.4841 18.3011 64.4841 19.4604 65.6435C20.0401 66.2232 20.3299 66.9829 20.3299 67.7427ZM65.6437 65.6435C66.8031 64.4841 68.6828 64.4841 69.8422 65.6435L72.6411 68.4425C73.2208 69.0222 73.5107 69.7819 73.5107 70.5417C73.5107 71.3015 73.2208 72.0612 72.6411 72.6409C71.4818 73.8003 69.6021 73.8003 68.4427 72.6409L65.6437 69.8419C65.064 69.2623 64.7742 68.5025 64.7742 67.7427C64.7742 66.983 65.064 66.2232 65.6437 65.6435ZM42.5521 75.2083C44.1917 75.2083 45.5208 76.5375 45.5208 78.1771L45.5208 82.1354C45.5208 83.775 44.1917 85.1042 42.5521 85.1042C40.9125 85.1042 39.5833 83.775 39.5833 82.1354L39.5833 78.1771C39.5833 76.5375 40.9125 75.2083 42.5521 75.2083Z" fill="#FFFFFF" fill-opacity="1.000000" fill-rule="evenodd"/>
</svg>
